<?xml version="1.0" standalone="no"?><!DOCTYPE svg PUBLIC "-//W3C//DTD SVG 1.1//EN" "http://www.w3.org/Graphics/SVG/1.1/DTD/svg11.dtd"><svg t="1533120332786" class="icon" style="" viewBox="0 0 1024 1024" version="1.1" xmlns="http://www.w3.org/2000/svg" p-id="1931" xmlns:xlink="http://www.w3.org/1999/xlink" width="200" height="200"><defs><style type="text/css"></style></defs><path d="M603.312 772.688L342.624 512l260.688-260.688-24.976-22.624-274.336 272v22.624l274.336 272z" fill="#bfbfbf" p-id="1932"></path><path d="M511.984 1024h0.032c136.768 0 265.328-53.28 362.032-149.968S1024 648.752 1023.984 511.984c0-136.768-53.248-265.344-149.952-362.032C777.344 53.264 648.784 0 512.016 0h-0.032C375.216 0 246.656 53.264 149.952 149.968 53.264 246.672 0 375.248 0.016 512.016c0 136.768 53.248 265.344 149.952 362.032C246.656 970.736 375.216 1024 511.984 1024zM172.592 172.592C263.232 81.936 383.776 32 512.016 32h0.032c128.192 0 248.72 49.936 339.376 140.576 90.656 90.656 140.576 211.2 140.56 339.408 0 128.224-49.92 248.768-140.56 339.424S640.24 992 512.016 992h-0.064c-128.192 0-248.72-49.936-339.376-140.576C81.936 760.768 32 640.24 32.016 512.016 32 383.792 81.936 263.248 172.592 172.592z" fill="#bfbfbf" p-id="1933"></path></svg>