<?xml version="1.0" standalone="no"?><!DOCTYPE svg PUBLIC "-//W3C//DTD SVG 1.1//EN" "http://www.w3.org/Graphics/SVG/1.1/DTD/svg11.dtd"><svg t="1535092832795" class="icon" style="" viewBox="0 0 1024 1024" version="1.1" xmlns="http://www.w3.org/2000/svg" p-id="9319" xmlns:xlink="http://www.w3.org/1999/xlink" width="500" height="500"><defs><style type="text/css"></style></defs><path d="M625.78 796.44h284.44V227.56L739.56 0H625.78v796.44z" fill="#B3DDFF" p-id="9320"></path><path d="M735.55 113.78l60.89 91.34v477.55H341.33V113.78h394.22M796.44 0H227.56v796.44h682.66V170.67L796.44 0z" fill="#1547FF" p-id="9321"></path><path d="M56.89 113.78A56.89 56.89 0 0 0 0 170.67V1024h853.33a56.89 56.89 0 0 0 56.89-56.89 56.89 56.89 0 0 0-56.89-56.89H113.78V170.67a56.89 56.89 0 0 0-56.89-56.89z" fill="#1547FF" p-id="9322"></path></svg>