<?xml version="1.0" standalone="no"?><!DOCTYPE svg PUBLIC "-//W3C//DTD SVG 1.1//EN" "http://www.w3.org/Graphics/SVG/1.1/DTD/svg11.dtd"><svg t="1588649113329" class="icon" viewBox="0 0 1024 1024" version="1.1" xmlns="http://www.w3.org/2000/svg" p-id="3398" xmlns:xlink="http://www.w3.org/1999/xlink" width="84" height="84"><defs><style type="text/css"></style></defs><path d="M144.244364 364.264727L444.043636 125.114182a149.876364 149.876364 0 0 1 185.576728 0.325818l297.146181 238.917818c32.116364 25.879273 50.688 63.767273 50.688 103.796364v326.656C977.454545 869.934545 913.128727 930.909091 833.722182 930.909091H236.869818C157.416727 930.909091 93.090909 869.934545 93.090909 794.810182v-326.469818c0-40.122182 18.711273-78.196364 51.153455-104.075637z m61.346909 66.373818a49.570909 49.570909 0 0 0-19.409455 38.912v317.393455C186.181818 815.010909 210.618182 837.818182 240.733091 837.818182h589.079273c30.114909 0 54.551273-22.807273 54.551272-50.874182v-317.579636c0-14.941091-7.028364-29.137455-19.223272-38.818909l-293.236364-232.261819a57.576727 57.576727 0 0 0-70.423273-0.139636L205.591273 430.638545zM372.363636 698.181818h325.818182a46.545455 46.545455 0 0 1 0 93.090909H372.363636a46.545455 46.545455 0 0 1 0-93.090909z" p-id="3399" fill="#2c2c2c"></path></svg>