<?xml version="1.0" standalone="no"?><!DOCTYPE svg PUBLIC "-//W3C//DTD SVG 1.1//EN" "http://www.w3.org/Graphics/SVG/1.1/DTD/svg11.dtd"><svg t="1532140349851" class="icon" style="" viewBox="0 0 1024 1024" version="1.1" xmlns="http://www.w3.org/2000/svg" p-id="1476" xmlns:xlink="http://www.w3.org/1999/xlink" width="200" height="200"><defs><style type="text/css"></style></defs><path d="M245.248 224.256h586.752c13.824 0 31.232-2.048 43.008 1.024 25.088 6.656 44.544 23.04 53.76 45.568 7.168 16.896 3.072 39.424-1.024 56.32-6.144 25.088-7.168 51.2-12.8 74.752-13.312 54.272-10.752 149.504-48.128 177.152-31.744 23.04-108.032 15.36-162.304 15.36h-394.24v2.048c3.072 5.12 1.536 11.776 3.072 18.432 4.608 19.456 5.632 38.4 20.48 47.616 17.408 10.752 75.264 5.632 102.912 5.632h393.216c16.384 0 40.448-3.584 45.056 8.704 4.608 5.12 2.56 13.312 1.024 19.456-4.608 3.072-5.632 6.656-12.8 7.68-3.584 2.048-12.8 1.024-18.432 1.024H417.28c-49.152 0-82.944 4.608-111.616-17.408-32.256-24.064-27.136-86.016-38.912-131.584-6.144-23.552-6.656-49.152-12.8-73.728-16.896-67.584-20.992-140.8-37.376-208.384-6.144-24.576-7.168-50.176-12.8-73.728-2.56-11.264-1.024-23.04-6.656-31.232-5.12-8.192-14.848-15.872-25.6-18.432H105.984c-7.68-2.048-9.216-8.192-13.824-12.8-0.512-10.24 1.536-18.432 8.704-20.48 6.656-6.144 39.424-3.072 52.736-3.072 71.68-0.512 84.48 45.568 91.648 110.08z m6.656 36.864c17.408 98.816 34.304 197.632 51.712 296.448H793.6c19.968 0 38.912 1.024 50.688-7.68 14.336-10.24 12.288-28.672 17.408-48.64 8.192-32.768 9.728-69.12 18.432-102.912 6.144-24.064 6.656-49.664 12.8-74.752 2.048-9.728 6.656-24.576 3.072-35.84-3.072-9.728-12.8-20.48-21.504-24.064-11.264-4.608-29.696-2.048-44.032-2.048h-91.136c-163.328-0.512-325.632-0.512-487.424-0.512z m141.824 480.768c16.896-0.512 29.696 1.024 40.96 6.656 28.16 12.8 53.248 55.808 35.328 97.792-10.24 23.04-30.72 37.376-57.856 43.52-13.312 3.072-27.648-2.048-35.328-5.632-29.184-12.288-60.928-50.176-43.008-94.208 7.168-17.92 22.016-34.816 39.936-42.496 5.12-2.56 14.336-2.048 19.968-5.632z m383.488 0c46.08-0.512 68.608 19.456 79.36 54.272 4.096 13.312 4.096 33.792-1.024 46.592-10.24 24.576-30.72 40.448-58.88 46.592-13.312 3.072-27.648-2.048-35.328-5.632-8.704-3.584-15.36-6.656-22.528-11.776-17.92-13.824-33.28-52.736-20.48-83.456 7.68-17.92 22.016-33.792 39.936-41.472 5.12-2.048 13.312-1.536 18.944-5.12z m-380.416 37.376c-13.824 9.216-25.088 8.192-30.208 27.136-6.656 23.552 16.896 53.76 43.008 46.592 41.984-11.776 38.912-75.264-12.8-73.728z m383.488 0c-13.312 9.216-23.04 7.68-29.184 26.112-7.68 24.576 16.384 54.272 41.984 47.616 43.008-11.264 39.936-75.264-12.8-73.728z" p-id="1477" fill="#bfbfbf"></path></svg>