<?xml version="1.0" standalone="no"?><!DOCTYPE svg PUBLIC "-//W3C//DTD SVG 1.1//EN" "http://www.w3.org/Graphics/SVG/1.1/DTD/svg11.dtd"><svg t="1526887730257" class="icon" style="" viewBox="0 0 1024 1024" version="1.1" xmlns="http://www.w3.org/2000/svg" p-id="1642" xmlns:xlink="http://www.w3.org/1999/xlink" width="200" height="200"><defs><style type="text/css"></style></defs><path d="M883.776 67.968h-88.448v70.912c0 26.944-24.96 48.896-55.744 48.896-30.72 0-55.744-21.952-55.744-48.896V67.968H340.16v70.912c0 26.944-25.024 48.896-55.744 48.896s-55.744-21.952-55.744-48.896V67.968h-88.448C80.576 67.968 32 110.592 32 162.944v766.144C32 981.376 80.576 1024 140.224 1024h743.552C943.488 1024 992 981.376 992 929.024v-766.08c0-52.352-48.576-94.976-108.224-94.976z m37.76 846.592c0 16.896-16.96 30.656-37.76 30.656H140.224c-20.864 0-37.76-13.76-37.76-30.656V336.768h819.072V914.56z m-636.16-745.472c14.72 0 26.624-9.152 26.624-20.48V20.48C312 9.152 300.096 0 285.376 0c-14.72 0-26.688 9.152-26.688 20.48v128.192c0 11.264 11.904 20.416 26.688 20.416z m453.248 0c14.72 0 26.688-9.152 26.688-20.48V20.48C765.312 9.152 753.344 0 738.624 0 723.904 0 712 9.152 712 20.48v128.192c0 11.264 11.904 20.416 26.624 20.416z m18.944 341.184L495.872 811.968c-13.952 16.064-36.544 16.064-50.496 0L298.432 642.56c-13.952-16.064-13.952-42.112 0-58.24 13.952-16.064 36.544-16.064 50.496 0l121.664 140.224 236.416-272.576c13.952-16.064 36.544-16.064 50.496 0 13.952 16.128 13.952 42.176 0.064 58.304z" fill="#2f80e7" p-id="1643"></path></svg>