<?xml version="1.0" standalone="no"?><!DOCTYPE svg PUBLIC "-//W3C//DTD SVG 1.1//EN" "http://www.w3.org/Graphics/SVG/1.1/DTD/svg11.dtd"><svg t="1526867298729" class="icon" style="" viewBox="0 0 1024 1024" version="1.1" xmlns="http://www.w3.org/2000/svg" p-id="2812" xmlns:xlink="http://www.w3.org/1999/xlink" width="200" height="200"><defs><style type="text/css"></style></defs><path d="M345.6 569.386667l120.746667-120.746667L167.04 149.333333c-66.56 66.56-66.56 174.72 0 241.28l178.56 178.773334z m289.493333-77.44c65.066667 30.506667 157.013333 8.96 224.853334-58.88 81.706667-81.706667 97.28-198.4 34.773333-260.906667C832 109.653333 715.093333 125.226667 633.6 206.933333c-67.84 67.84-89.173333 159.786667-58.88 224.853334-94.933333 94.72-416.64 416.426667-416.64 416.426666l60.373333 60.373334L512 615.04l293.546667 293.546667 60.373333-60.373334L572.373333 554.666667l62.72-62.72z" fill="#d81e06" p-id="2813"></path></svg>