<?xml version="1.0" standalone="no"?><!DOCTYPE svg PUBLIC "-//W3C//DTD SVG 1.1//EN" "http://www.w3.org/Graphics/SVG/1.1/DTD/svg11.dtd"><svg t="1526904746246" class="icon" style="" viewBox="0 0 1024 1024" version="1.1" xmlns="http://www.w3.org/2000/svg" p-id="5128" xmlns:xlink="http://www.w3.org/1999/xlink" width="200" height="200"><defs><style type="text/css"></style></defs><path d="M492.0832 0h37.12c83.3024 2.4576 167.6288 4.5056 248.8832 24.9856 40.704 10.24 80.4864 25.7024 115.4048 49.2032 44.0832 30.8736 75.1104 77.6704 92.7232 128.0512 29.4912 82.3808 32.1024 170.5472 37.7856 256.8704v90.4704c-5.0176 104.1408-7.8848 212.5824-53.0944 308.736-35.6864 73.984-110.2336 122.1632-188.672 140.2368-81.8176 20.4288-166.4512 23.6032-250.3168 25.4464h-43.3152c-101.632-3.2256-206.3872-5.3248-302.2848-43.1104-63.6416-25.2416-115.5584-76.8-141.568-140.032C6.9632 751.0528 3.6864 651.8272 0 555.8784V464.128c2.816-83.3024 7.5776-167.6288 32.2048-247.8592 12.3904-45.0048 37.8368-85.8624 70.656-118.8864 38.8096-38.0928 90.5216-59.2896 142.336-72.8576C325.888 4.5568 409.4464 2.4576 492.0832 0M304.0768 426.8544c-22.6816 35.3792-43.3664 73.6768-49.408 115.8144-8.6016 96.4608 42.752 194.7648 125.952 243.968 70.0928 42.9056 161.3312 48.5376 236.1344 14.5408 69.8368-30.6176 123.904-93.7472 144.6912-167.0144 11.7248-42.24 15.7184-88.832-0.5632-130.4576-21.76-58.368-59.904-108.8512-99.7888-156.0064-45.4656-52.8896-95.6928-101.5808-148.6848-146.8416-77.056 67.6352-151.296 140.2368-208.3328 225.9968z" fill="#1A68C8" p-id="5129"></path><path d="M400.128 587.776c48.8448-62.0544 97.28-124.3648 145.8176-186.6752-6.6048 39.1168-14.9504 77.9776-21.9648 117.0432 37.6832 0.0512 75.3664-0.256 113.0496 0.1536-50.2784 61.44-96.8192 125.952-147.7632 186.8288 8.8064-38.8096 15.6672-77.9776 23.0912-117.0432-37.4272-0.2048-74.8032 0.3584-112.2304-0.3072z" fill="#1A68C8" p-id="5130"></path><path d="M304.0768 426.8544c57.0368-85.76 131.2768-158.3616 208.3328-225.9968 52.992 45.2608 103.2192 93.952 148.6848 146.8416 39.8848 47.1552 78.0288 97.6384 99.7888 156.0064 16.2816 41.6256 12.288 88.2176 0.5632 130.4576-20.7872 73.2672-74.8544 136.3968-144.6912 167.0144-74.8032 33.9968-166.0416 28.3648-236.1344-14.5408-83.2-49.2032-134.5536-147.5072-125.952-243.968 6.0416-42.1376 26.7264-80.4352 49.408-115.8144m96.0512 160.9216c37.4272 0.6656 74.8032 0.1024 112.2304 0.3072-7.424 39.0656-14.2848 78.2336-23.0912 117.0432 50.944-60.8768 97.4848-125.3888 147.7632-186.8288-37.6832-0.4096-75.3664-0.1024-113.0496-0.1536 7.0144-39.0656 15.36-77.9264 21.9648-117.0432-48.5376 62.3104-96.9728 124.6208-145.8176 186.6752z" fill="#FFFFFF" p-id="5131"></path></svg>