<?xml version="1.0" standalone="no"?><!DOCTYPE svg PUBLIC "-//W3C//DTD SVG 1.1//EN" "http://www.w3.org/Graphics/SVG/1.1/DTD/svg11.dtd"><svg t="1526888087759" class="icon" style="" viewBox="0 0 1024 1024" version="1.1" xmlns="http://www.w3.org/2000/svg" p-id="3910" xmlns:xlink="http://www.w3.org/1999/xlink" width="200" height="200"><defs><style type="text/css"></style></defs><path d="M987.37038222 39.57987555l-2.64988444-21.44256-21.29009778-3.6704711c-1.28910222-0.22300446-32.08419555-5.44312889-77.68064-5.4431289-53.06481778 0-131.99928889 7.23626667-206.69098667 41.70979556-57.21884445 26.40782222-107.70659555 88.29838222-150.06037332 183.95136-6.81415111 15.39072-12.84209778 30.38435555-18.10545779 44.41884444-8.70968889-28.78805333-19.83715555-55.46666667-33.26293333-79.66378666-25.19608889-45.40643554-58.49201778-82.11000889-98.9639111-109.09127111-98.93432889-65.95584-194.64305778-79.80145778-257.51096889-79.80145778-46.05952 0-75.62922667 7.49567999-76.86599112 7.81539555l-19.81326223 5.11317334-1.89553777 20.37418667c-0.21390221 2.29148445-5.08017778 56.89571555 6.98823112 126.12607999 7.14638222 40.99754667 18.78926222 78.81272889 34.60664889 112.39765335 20.16369778 42.81116445 47.16771555 78.81272889 80.26339555 107.00572444 47.53521778 40.49351111 97.88984887 70.28508445 149.66101333 88.54983111 40.88263113 14.42360889 82.79836444 21.73610667 124.58097778 21.73610666 0.00341333 0-0.00113778 0 0.00113777 0 26.16206222 0 48.51029332-2.91612445 65.35054223-6.03363556l0 76.22769778L202.22634667 569.85941333l0 345.76497777c0 53.49944889 43.52455111 97.02513779 97.02513778 97.02513779l442.34865777 0c53.49944889 0 97.024-43.52568889 97.024-97.02513776L838.62414222 569.85713778 542.24440889 569.85713778 542.24440889 408.74666667c38.97457778 6.29418668 75.81013333 9.48565333 109.87861333 9.48565333 111.75139555 0 198.05980444-33.536 256.52906668-99.67502222C1006.83548445 207.49425778 988.2112 46.38492445 987.37038222 39.57987555z" fill="#2aa515" p-id="3911"></path></svg>