<?xml version="1.0" standalone="no"?><!DOCTYPE svg PUBLIC "-//W3C//DTD SVG 1.1//EN" "http://www.w3.org/Graphics/SVG/1.1/DTD/svg11.dtd"><svg t="1532844154423" class="icon" style="" viewBox="0 0 1024 1024" version="1.1" xmlns="http://www.w3.org/2000/svg" p-id="2671" xmlns:xlink="http://www.w3.org/1999/xlink" width="200" height="200"><defs><style type="text/css"></style></defs><path d="M531.609859 145.683394c190.652768 0 345.199192 154.547717 345.199192 345.199192 0 190.652768-154.546424 345.199192-345.199192 345.199192-190.652768 0-345.199192-154.546424-345.199192-345.199192 0-190.652768 154.546424-345.199192 345.199192-345.199192z" fill="#1B9DC7" p-id="2672"></path><path d="M367.719434 386.875475h327.782142L546.508283 535.867475v119.193858c0.001293 0 53.802667 28.97196 54.630141 29.798142-62.08 10.759758-78.63596 9.933576-139.059717 0 1.656242 0 54.631434-29.798141 54.631434-29.798142V535.867475L367.719434 386.875475z m199.828687 14.642424l-7.02707-7.012848 105.363393-105.363394 7.012849 7.02707-105.349172 105.349172z m84.278303-49.150707c-11.633778 11.632485-30.506667 11.632485-42.139151 0-11.632485-11.649293-11.632485-30.506667 0-42.154667 11.632485-11.632485 30.505374-11.632485 42.139151 0 11.649293 11.648 11.649293 30.504081 0 42.154667z" fill="#FFFFFF" p-id="2673"></path></svg>