<svg viewBox="0 0 1024 1024" version="1.1" xmlns="http://www.w3.org/2000/svg" width="200" height="200"><path d="M608 864c-78.933333 0-142.933333-49.066667-142.933333-113.066667s61.866667-113.066667 142.933333-113.066666c25.6 0 51.2 6.4 72.533333 14.933333l46.933334-315.733333c4.266667-25.6 12.8-49.066667 27.733333-68.266667 10.666667-14.933333 23.466667-27.733333 40.533333-36.266667l76.8-46.933333c12.8-8.533333 29.866667-8.533333 42.666667 0 12.8 8.533333 21.333333 21.333333 21.333333 36.266667s-6.4 29.866667-19.2 38.4c-6.4 4.266667-19.2 25.6-23.466666 53.333333-4.266667 19.2 0 34.133333 2.133333 36.266667 21.333333 8.533333 32 32 23.466667 53.333333-8.533333 21.333333-32 34.133333-55.466667 25.6-27.733333-10.666667-44.8-32-53.333333-64l-59.733334 390.4c-4.266667 61.866667-66.133333 108.8-142.933333 108.8z m0-142.933333c-36.266667 0-57.6 19.2-57.6 27.733333s21.333333 27.733333 57.6 27.733333c32 0 53.333333-14.933333 55.466667-25.6V746.666667c0-8.533333-21.333333-25.6-55.466667-25.6z" fill="#27C087" /><path d="M580.266667 605.866667H170.666667c-23.466667 0-42.666667-19.2-42.666667-42.666667s19.2-42.666667 42.666667-42.666667h409.6c23.466667 0 42.666667 19.2 42.666666 42.666667s-19.2 42.666667-42.666666 42.666667zM398.933333 774.4H170.666667c-23.466667 0-42.666667-19.2-42.666667-42.666667s19.2-42.666667 42.666667-42.666666h228.266666c23.466667 0 42.666667 19.2 42.666667 42.666666s-19.2 42.666667-42.666667 42.666667zM580.266667 433.066667H170.666667c-23.466667 0-42.666667-19.2-42.666667-42.666667s19.2-42.666667 42.666667-42.666667h409.6c23.466667 0 42.666667 19.2 42.666666 42.666667s-19.2 42.666667-42.666666 42.666667zM580.266667 262.4H170.666667c-23.466667 0-42.666667-19.2-42.666667-42.666667s19.2-42.666667 42.666667-42.666666h409.6c23.466667 0 42.666667 19.2 42.666666 42.666666s-19.2 42.666667-42.666666 42.666667zM610.133333 819.2c-76.8 0-123.733333-27.733333-123.733333-70.4s46.933333-70.4 123.733333-70.4 123.733333 27.733333 123.733334 70.4-46.933333 70.4-123.733334 70.4z m49.066667-49.066667z" fill="#27C087" /></svg>