<?xml version="1.0" standalone="no"?><!DOCTYPE svg PUBLIC "-//W3C//DTD SVG 1.1//EN" "http://www.w3.org/Graphics/SVG/1.1/DTD/svg11.dtd"><svg viewBox="0 0 1024 1024" version="1.1" xmlns="http://www.w3.org/2000/svg" xmlns:xlink="http://www.w3.org/1999/xlink" width="200" height="200"><path d="M738.721408 475.964809c-6.005865 0-12.01173-1.501466-15.014663-6.005865-9.008798-9.008798-9.008798-22.521994 0-31.530792l52.55132-54.052785-52.55132-57.055719c-9.008798-9.008798-7.507331-24.02346 1.501466-31.530792 9.008798-9.008798 24.02346-7.507331 31.530792 1.501467l67.565982 72.070381c7.507331 9.008798 7.507331 22.521994 0 31.530792l-67.565982 69.067448c-6.005865 4.504399-12.01173 6.005865-18.017595 6.005865z" fill="#27C087" /><path d="M738.721408 761.243402c-6.005865 0-12.01173-1.501466-15.014663-6.005865-9.008798-9.008798-9.008798-22.521994 0-31.530792l52.55132-54.052786-52.55132-57.055719c-9.008798-9.008798-7.507331-24.02346 1.501466-31.530791 9.008798-9.008798 24.02346-7.507331 31.530792 1.501466l67.565982 72.070381c7.507331 9.008798 7.507331 22.521994 0 31.530792l-67.565982 69.067449c-6.005865 4.504399-12.01173 6.005865-18.017595 6.005865z" fill="#27C087" /><path d="M788.269795 405.395894H211.706745c-12.01173 0-22.521994-10.510264-22.521994-22.521994s10.510264-22.521994 22.521994-22.521994h576.56305c12.01173 0 22.521994 10.510264 22.521994 22.521994s-10.510264 22.521994-22.521994 22.521994z" fill="#27C087" /><path d="M788.269795 690.674487H211.706745c-12.01173 0-22.521994-10.510264-22.521994-22.521994s10.510264-22.521994 22.521994-22.521994h576.56305c12.01173 0 22.521994 10.510264 22.521994 22.521994s-10.510264 22.521994-22.521994 22.521994z" fill="#27C087" /></svg>