<svg viewBox="0 0 1024 1024" version="1.1" xmlns="http://www.w3.org/2000/svg" width="200" height="200"><path d="M349.866667 149.333333h-14.933334c-21.333333 0-36.266667 14.933333-36.266666 34.133334v654.933333c0 19.2 14.933333 34.133333 34.133333 34.133333h14.933333c19.2 0 34.133333-14.933333 34.133334-34.133333V183.466667c2.133333-19.2-12.8-34.133333-32-34.133334z m341.333333 0h-14.933333c-21.333333 0-36.266667 14.933333-36.266667 34.133334v654.933333c0 19.2 14.933333 34.133333 34.133333 34.133333h14.933334c19.2 0 34.133333-14.933333 34.133333-34.133333V183.466667c2.133333-19.2-12.8-34.133333-32-34.133334z" fill="#27C087" /></svg>