<svg viewBox="0 0 1024 1024" version="1.1" xmlns="http://www.w3.org/2000/svg" width="200" height="200"><path d="M756.739003 445.935484c-6.005865 0-12.01173-1.501466-15.014663-6.005865-9.008798-9.008798-9.008798-22.521994 0-31.530792l52.55132-54.052786-52.55132-57.055718c-9.008798-9.008798-7.507331-24.02346 1.501466-31.530792 9.008798-9.008798 24.02346-7.507331 31.530792 1.501466l67.565983 72.070381c7.507331 9.008798 7.507331 22.521994 0 31.530792l-67.565983 69.067449c-6.005865 4.504399-12.01173 6.005865-18.017595 6.005865z" fill="#27C087" /><path d="M756.739003 791.272727c-6.005865 0-12.01173-1.501466-15.014663-6.005865-9.008798-9.008798-9.008798-22.521994 0-31.530792l52.55132-54.052786-52.55132-57.055718c-9.008798-9.008798-7.507331-24.02346 1.501466-31.530792 9.008798-9.008798 24.02346-7.507331 31.530792 1.501466l67.565983 72.070382c7.507331 9.008798 7.507331 22.521994 0 31.530791l-67.565983 69.067449c-6.005865 4.504399-12.01173 6.005865-18.017595 6.005865z" fill="#27C087" /><path d="M346.83871 720.703812h-132.129033c-12.01173 0-22.521994-10.510264-22.521994-22.521994s10.510264-22.521994 22.521994-22.521994h132.129033c99.096774 0 139.636364-40.539589 139.636363-139.636364V525.513196c0-126.123167 66.064516-195.190616 184.680352-195.190615h144.140763c12.01173 0 22.521994 10.510264 22.521994 22.521994s-10.510264 22.521994-22.521994 22.521994h-144.140763c-94.592375 0-139.636364 49.548387-139.636363 150.146627v10.510264c0 124.621701-60.058651 184.680352-184.680352 184.680352z" fill="#27C087" /><path d="M815.296188 720.703812h-144.140763c-45.043988 0-88.58651-16.516129-121.618768-46.545454-9.008798-7.507331-10.510264-22.521994-1.501466-31.530792 7.507331-9.008798 22.521994-10.510264 31.530791-1.501466 25.524927 22.521994 58.557185 34.533724 91.589443 34.533724h144.140763c12.01173 0 22.521994 10.510264 22.521994 22.521994s-10.510264 22.521994-22.521994 22.521994zM453.442815 415.906158c-6.005865 0-10.510264-1.501466-15.014663-6.005865-25.524927-22.521994-58.557185-34.533724-91.589442-34.533724h-132.129033c-12.01173 0-22.521994-10.510264-22.521994-22.521994s10.510264-22.521994 22.521994-22.521994h132.129033c45.043988 0 88.58651 16.516129 121.618768 46.545454 9.008798 7.507331 10.510264 22.521994 1.501466 31.530792-4.504399 4.504399-10.510264 7.507331-16.516129 7.507331z" fill="#27C087" /></svg>