<?xml version="1.0" standalone="no"?><!DOCTYPE svg PUBLIC "-//W3C//DTD SVG 1.1//EN" "http://www.w3.org/Graphics/SVG/1.1/DTD/svg11.dtd"><svg viewBox="0 0 1068 1024" version="1.1" xmlns="http://www.w3.org/2000/svg" xmlns:xlink="http://www.w3.org/1999/xlink" width="208.59375" height="200"><path d="M448.667826 881.530435l88.153044 88.153043a22.26087 22.26087 0 1 1-31.499131 31.499131l-125.907478-125.929739a22.26087 22.26087 0 0 1 20.48-37.487305l0.734609-0.734608H690.086957c184.409043 0 333.913043-149.504 333.913043-333.913044 0-107.386435-50.688-202.952348-129.469217-264.013913l-0.022261-0.111304a22.238609 22.238609 0 1 1 27.625739-34.771479l0.044522-0.044521c89.043478 69.231304 146.342957 177.39687 146.342956 298.941217 0 209.007304-169.427478 378.434783-378.434782 378.434783H448.667826z m261.787826-711.724522A339.099826 339.099826 0 0 0 690.086957 169.20487H378.434783c-184.409043 0-333.913043 149.481739-333.913044 333.913043 0 125.261913 68.964174 234.406957 171.008 291.528348l0.022261 0.111304a22.26087 22.26087 0 1 1-22.706087 38.110609l-0.066783 0.089043C77.690435 768.044522 0 644.630261 0 503.095652c0-209.029565 169.427478-378.434783 378.434783-378.434782h282.312347L574.107826 37.999304A22.26087 22.26087 0 0 1 605.562435 6.522435L731.492174 132.452174a22.26087 22.26087 0 1 1-21.036522 37.353739z" fill="#27C087" /><path d="M597.726609 368.862609c1.647304 3.428174 2.381913 7.212522 2.159304 10.952348V667.826087a22.26087 22.26087 0 0 1-44.521739 0V432.306087l-72.125217 72.125217a22.26087 22.26087 0 1 1-31.47687-31.476869l108.81113-108.855652a22.26087 22.26087 0 0 1 37.153392 4.741565z" fill="#27C087" /></svg>