<?xml version="1.0" standalone="no"?><!DOCTYPE svg PUBLIC "-//W3C//DTD SVG 1.1//EN" "http://www.w3.org/Graphics/SVG/1.1/DTD/svg11.dtd"><svg viewBox="64 64 896 896" width="1em" height="1em" fill="#1890ff" version="1.1" xmlns="http://www.w3.org/2000/svg" p-id="3837" xmlns:xlink="http://www.w3.org/1999/xlink"><path d="M928 224H768v-56c0-4.4-3.6-8-8-8h-56c-4.4 0-8 3.6-8 8v56H548v-56c0-4.4-3.6-8-8-8h-56c-4.4 0-8 3.6-8 8v56H328v-56c0-4.4-3.6-8-8-8h-56c-4.4 0-8 3.6-8 8v56H96c-17.7 0-32 14.3-32 32v576c0 17.7 14.3 32 32 32h832c17.7 0 32-14.3 32-32V256c0-17.7-14.3-32-32-32zm-40 568H136V296h120v56c0 4.4 3.6 8 8 8h56c4.4 0 8-3.6 8-8v-56h148v56c0 4.4 3.6 8 8 8h56c4.4 0 8-3.6 8-8v-56h148v56c0 4.4 3.6 8 8 8h56c4.4 0 8-3.6 8-8v-56h120v496zM416 496H232c-4.4 0-8 3.6-8 8v48c0 4.4 3.6 8 8 8h184c4.4 0 8-3.6 8-8v-48c0-4.4-3.6-8-8-8zm0 136H232c-4.4 0-8 3.6-8 8v48c0 4.4 3.6 8 8 8h184c4.4 0 8-3.6 8-8v-48c0-4.4-3.6-8-8-8zm308.2-177.4L620.6 598.3l-52.8-73.1c-3-4.2-7.8-6.6-12.9-6.6H500c-6.5 0-10.3 7.4-6.5 12.7l114.1 158.2a15.9 15.9 0 0 0 25.8 0l165-228.7c3.8-5.3 0-12.7-6.5-12.7H737c-5-.1-9.8 2.4-12.8 6.5z"></path></svg>