<?xml version="1.0" standalone="no"?><!DOCTYPE svg PUBLIC "-//W3C//DTD SVG 1.1//EN" "http://www.w3.org/Graphics/SVG/1.1/DTD/svg11.dtd"><svg t="1555086675305" class="icon" style="" viewBox="0 0 1024 1024" version="1.1" xmlns="http://www.w3.org/2000/svg" p-id="5449" xmlns:xlink="http://www.w3.org/1999/xlink" width="200" height="200"><defs><style type="text/css"></style></defs><path d="M810.666667 503.466667c-4.266667-4.266667-8.533333-8.533333-12.8-4.266667l-264.533334 132.266667c-12.8 4.266667-25.6 4.266667-38.4 0l-264.533333-132.266667h-4.266667c-4.266667 0-8.533333 4.266667-8.533333 8.533333v247.466667c0 8.533333 4.266667 17.066667 12.8 21.333333l277.333333 119.466667c4.266667 4.266667 12.8 4.266667 17.066667 0l277.333333-119.466667c8.533333-4.266667 12.8-12.8 12.8-21.333333v-247.466667c-4.266667 0-4.266667-4.266667-4.266666-4.266666z" fill="#FF6633" p-id="5450"></path><path d="M994.133333 311.466667c0-4.266667-4.266667-8.533333-8.533333-8.533334L529.066667 93.866667c-12.8-4.266667-25.6-4.266667-34.133334 0L42.666667 298.666667c-12.8 8.533333-17.066667 21.333333-12.8 29.866666L42.666667 341.333333l452.266666 209.066667c12.8 4.266667 25.6 4.266667 34.133334 0l366.933333-170.666667V640c0 25.6 17.066667 42.666667 42.666667 42.666667s42.666667-17.066667 42.666666-42.666667V341.333333c12.8-8.533333 17.066667-21.333333 12.8-29.866666z" fill="#FFD900" p-id="5451"></path></svg>